<svg width="46" height="36" viewBox="0 0 46 36" fill="none" xmlns="http://www.w3.org/2000/svg">
<g clip-path="url(#clip0_90_95)">
<mask id="mask0_90_95" style="mask-type:luminance" maskUnits="userSpaceOnUse" x="0" y="0" width="46" height="36">
<path d="M46 0H0V36H46V0Z" fill="white"/>
</mask>
<g mask="url(#mask0_90_95)">
<path d="M38.9409 3.20586C36.0091 1.84676 32.8651 0.845437 29.5778 0.271937C29.5179 0.260869 29.4581 0.288529 29.4273 0.343851C29.023 1.0704 28.5751 2.01825 28.2614 2.76325C24.7258 2.22849 21.2083 2.22849 17.7451 2.76325C17.4314 2.00169 16.9673 1.0704 16.5611 0.343851C16.5303 0.290375 16.4705 0.262714 16.4106 0.271937C13.1252 0.843604 9.98116 1.84493 7.04746 3.20586C7.02206 3.21692 7.00029 3.23538 6.98585 3.25933C1.02233 12.2603 -0.611321 21.0399 0.190095 29.7108C0.193721 29.7532 0.217292 29.7938 0.24993 29.8195C4.18448 32.7387 7.99577 34.5109 11.7363 35.6855C11.7961 35.704 11.8596 35.6819 11.8977 35.632C12.7825 34.4113 13.5712 33.1241 14.2475 31.7705C14.2874 31.6913 14.2493 31.5972 14.1677 31.5659C12.9167 31.0864 11.7254 30.5018 10.5795 29.838C10.4888 29.7845 10.4816 29.6536 10.565 29.5908C10.8061 29.4083 11.0473 29.2183 11.2776 29.0266C11.3192 28.9915 11.3773 28.9842 11.4263 29.0063C18.9545 32.4787 27.1046 32.4787 34.544 29.0063C34.593 28.9823 34.651 28.9897 34.6945 29.0247C34.9248 29.2165 35.166 29.4083 35.4089 29.5908C35.4923 29.6536 35.4869 29.7845 35.3962 29.838C34.2503 30.5147 33.059 31.0864 31.8061 31.564C31.7246 31.5954 31.6883 31.6913 31.7282 31.7705C32.419 33.1223 33.2077 34.4094 34.0762 35.6302C34.1125 35.6819 34.1777 35.704 34.2376 35.6855C37.9963 34.5109 41.8075 32.7387 45.7421 29.8195C45.7765 29.7938 45.7983 29.755 45.8019 29.7126C46.7611 19.6882 44.1954 10.9805 39.0007 3.26117C38.988 3.23538 38.9663 3.21692 38.9409 3.20586ZM15.3717 24.4311C13.1052 24.4311 11.2377 22.3289 11.2377 19.7472C11.2377 17.1655 13.069 15.0633 15.3717 15.0633C17.6925 15.0633 19.542 17.1839 19.5057 19.7472C19.5057 22.3289 17.6744 24.4311 15.3717 24.4311ZM30.6566 24.4311C28.3902 24.4311 26.5226 22.3289 26.5226 19.7472C26.5226 17.1655 28.3539 15.0633 30.6566 15.0633C32.9775 15.0633 34.8269 17.1839 34.7906 19.7472C34.7906 22.3289 32.9775 24.4311 30.6566 24.4311Z" fill="#5865F2"/>
</g>
</g>
<defs>
<clipPath id="clip0_90_95">
<rect width="46" height="36" fill="white"/>
</clipPath>
</defs>
</svg>
