<svg width="28" height="28" viewBox="0 0 28 28" fill="none" xmlns="http://www.w3.org/2000/svg">
<g clip-path="url(#clip0_89_74)">
<path d="M18.382 9.46373L10.8977 1.97965C10.6871 1.7691 10.4016 1.65076 10.1039 1.65076H1.12268C0.502632 1.65081 0 2.15355 0 2.77343V25.2265C0 25.8466 0.502632 26.3492 1.12268 26.3492H17.5882C18.2082 26.3492 18.7109 25.8466 18.7109 25.2265V10.2576C18.7109 9.95979 18.5926 9.67433 18.382 9.46373Z" fill="#D6E5F6"/>
<path d="M18.382 9.46373L10.8977 1.97965C10.6871 1.7691 10.4016 1.65076 10.1039 1.65076H8.9812V26.3491H17.5882C18.2082 26.3491 18.7109 25.8465 18.7109 25.2264V10.2576C18.7109 9.9598 18.5926 9.67433 18.382 9.46373Z" fill="#A4C6EC"/>
<path d="M18.3819 9.38889L10.9724 1.97968C10.6514 1.65861 10.1684 1.56263 9.74896 1.73637C9.32945 1.91006 9.05591 2.3195 9.05591 2.77346V10.1827C9.05591 10.8027 9.55848 11.3054 10.1786 11.3054H17.5881C18.0421 11.3054 18.4514 11.0319 18.6252 10.6123C18.7992 10.1929 18.703 9.71001 18.3819 9.38889Z" fill="#385C8E"/>
<path d="M13.0976 18.8647H5.61328C4.99329 18.8647 4.4906 19.3675 4.4906 19.9874C4.4906 20.6075 4.99323 21.1101 5.61328 21.1101H13.0976C13.7176 21.1101 14.2203 20.6075 14.2203 19.9874C14.2203 19.3674 13.7176 18.8647 13.0976 18.8647Z" fill="#1D3366"/>
<path d="M5.61328 16.6195H13.0976C13.7176 16.6195 14.2203 16.1169 14.2203 15.4968C14.2203 14.8769 13.7177 14.3741 13.0976 14.3741H5.61328C4.99329 14.3741 4.4906 14.8769 4.4906 15.4968C4.4906 16.1169 4.99329 16.6195 5.61328 16.6195Z" fill="#1D3366"/>
<path d="M27.6712 1.97965C27.4607 1.7691 27.1751 1.65076 26.8774 1.65076H22.0789C21.7811 1.65076 21.4956 1.7691 21.2851 1.97965C21.0745 2.19025 20.9563 2.47577 20.9563 2.77349L20.9565 22.8275C20.9565 23.1252 21.0747 23.4107 21.2854 23.6213L23.6845 26.0204C23.9037 26.2397 24.191 26.3492 24.4783 26.3492C24.7655 26.3492 25.0529 26.2397 25.2721 26.0204L27.6712 23.6213C27.8817 23.4107 28.0001 23.1252 28.0001 22.8275L28.0003 2.77349C28 2.47583 27.8817 2.1903 27.6712 1.97965Z" fill="#F6E27D"/>
<path d="M27.6711 1.97965C27.4606 1.7691 27.175 1.65076 26.8773 1.65076H24.478V26.3491C24.7654 26.3491 25.0527 26.2396 25.2718 26.0203L27.6709 23.6211C27.8815 23.4105 27.9998 23.1251 27.9998 22.8274L27.9999 2.77343C27.9999 2.47583 27.8817 2.1903 27.6711 1.97965Z" fill="#F2D23D"/>
</g>
<defs>
<clipPath id="clip0_89_74">
<rect width="28" height="28" fill="white"/>
</clipPath>
</defs>
</svg>
