<svg width="28" height="28" viewBox="0 0 28 28" fill="none" xmlns="http://www.w3.org/2000/svg">
<path d="M8.74996 23.3333H22.1666L25.6666 26.8333V14.5833C25.6666 13.3 24.6166 12.25 23.3333 12.25H8.74996C7.46663 12.25 6.41663 13.3 6.41663 14.5833V21C6.41663 22.2833 7.46663 23.3333 8.74996 23.3333Z" fill="#558B2F"/>
<path d="M16.8 19.1334H14.7L14.2916 20.3584H13.0083L15.1666 14.525H16.275L18.4333 20.3584H17.15L16.8 19.1334ZM14.9916 18.2H16.45L15.75 15.9834L14.9916 18.2Z" fill="#1B5E20"/>
<path d="M19.25 14.5834H5.83337L2.33337 18.0834V4.66671C2.33337 3.38337 3.38337 2.33337 4.66671 2.33337H19.25C20.5334 2.33337 21.5834 3.38337 21.5834 4.66671V12.25C21.5834 13.5334 20.5334 14.5834 19.25 14.5834Z" fill="#8BC34A"/>
<path d="M14.8167 8.28332C14.8167 8.86665 14.7 9.33332 14.525 9.74165C14.35 10.15 14.1167 10.5 13.7667 10.7333L14.7583 11.4917L14 12.1917L12.7167 11.2C12.6 11.2 12.425 11.2583 12.25 11.2583C11.9 11.2583 11.55 11.2 11.2 11.0833C10.9083 10.9667 10.6167 10.7333 10.3833 10.5C10.15 10.2667 9.97502 9.91665 9.85835 9.56665C9.74168 9.21665 9.68335 8.80832 9.68335 8.34165V8.10832C9.68335 7.64165 9.74168 7.23332 9.85835 6.88332C9.97502 6.53332 10.15 6.18332 10.3833 5.94998C10.6167 5.71665 10.85 5.48332 11.2 5.36665C11.4917 5.24998 11.8417 5.19165 12.25 5.19165C12.6 5.19165 12.95 5.24998 13.3 5.36665C13.5917 5.48332 13.8833 5.71665 14.1167 5.94998C14.35 6.18332 14.525 6.53332 14.6417 6.88332C14.7583 7.23332 14.8167 7.64165 14.8167 8.10832V8.28332ZM13.5333 7.99165C13.5333 7.34998 13.4167 6.88332 13.1833 6.59165C12.95 6.24165 12.6583 6.12498 12.25 6.12498C11.8417 6.12498 11.4917 6.29998 11.3167 6.59165C11.0833 6.94165 10.9667 7.40832 10.9667 7.99165V8.28332C10.9667 8.57498 11.025 8.86665 11.0833 9.09998C11.1417 9.33332 11.2 9.56665 11.3167 9.68332C11.4333 9.85832 11.55 9.97498 11.725 10.0333C11.9 10.0917 12.075 10.15 12.25 10.15C12.6583 10.15 13.0083 9.97498 13.1833 9.68332C13.4167 9.33332 13.5333 8.86665 13.5333 8.22498V7.99165Z" fill="white"/>
</svg>
