<svg width="20" height="20" viewBox="0 0 20 20" fill="none" xmlns="http://www.w3.org/2000/svg">
<mask id="mask0_55_26" style="mask-type:alpha" maskUnits="userSpaceOnUse" x="0" y="0" width="20" height="20">
<rect width="20" height="20" fill="#D9D9D9"/>
</mask>
<g mask="url(#mask0_55_26)">
<path d="M7.45833 14.8541C7.26389 14.9097 7.07292 14.9166 6.88542 14.875C6.69792 14.8333 6.56944 14.7222 6.5 14.5416C6.43056 14.3889 6.44444 14.25 6.54167 14.125C6.63889 14 6.77083 13.9236 6.9375 13.8958C7.8125 13.7153 8.49306 13.3923 8.97917 12.9271C9.46528 12.4618 9.70833 11.8958 9.70833 11.2291C9.70833 10.8125 9.56597 10.4305 9.28125 10.0833C8.99653 9.73609 8.625 9.48609 8.16667 9.33331C7.84722 10.125 7.46875 10.8333 7.03125 11.4583C6.59375 12.0833 6.11111 12.625 5.58333 13.0833L5.72917 13.5416C5.77083 13.6944 5.75694 13.8368 5.6875 13.9687C5.61806 14.1007 5.50694 14.1875 5.35417 14.2291C5.20139 14.2708 5.05903 14.2604 4.92708 14.1979C4.79514 14.1354 4.70833 14.0278 4.66667 13.875L4.64583 13.75C4.28472 13.9444 3.94444 14.0937 3.625 14.1979C3.30556 14.3021 2.99306 14.3541 2.6875 14.3541C2.24306 14.3541 1.88194 14.2083 1.60417 13.9166C1.32639 13.625 1.1875 13.2361 1.1875 12.75C1.1875 12.0139 1.46528 11.2847 2.02083 10.5625C2.57639 9.84026 3.29167 9.27081 4.16667 8.85415C4.18056 8.59026 4.19444 8.32984 4.20833 8.0729C4.22222 7.81595 4.24306 7.55554 4.27083 7.29165C3.95139 7.30554 3.625 7.30554 3.29167 7.29165C2.95833 7.27776 2.60417 7.25692 2.22917 7.22915C2.0625 7.21526 1.92014 7.15276 1.80208 7.04165C1.68403 6.93054 1.625 6.79859 1.625 6.64581C1.625 6.49304 1.68056 6.36804 1.79167 6.27081C1.90278 6.17359 2.03472 6.13887 2.1875 6.16665C2.46528 6.19442 2.78125 6.21526 3.13542 6.22915C3.48958 6.24304 3.90972 6.24998 4.39583 6.24998C4.40972 6.0972 4.42361 5.95484 4.4375 5.8229C4.45139 5.69095 4.46528 5.54859 4.47917 5.39581C4.49306 5.21526 4.5625 5.06595 4.6875 4.9479C4.8125 4.82984 4.95833 4.77081 5.125 4.77081C5.27778 4.77081 5.39583 4.83679 5.47917 4.96873C5.5625 5.10067 5.59028 5.24304 5.5625 5.39581C5.53472 5.5347 5.51042 5.67359 5.48958 5.81248C5.46875 5.95137 5.44444 6.09026 5.41667 6.22915C6.09722 6.20137 6.72917 6.15623 7.3125 6.09373C7.89583 6.03123 8.45139 5.94442 8.97917 5.83331C9.13194 5.80554 9.27083 5.82984 9.39583 5.90623C9.52083 5.98262 9.58333 6.0972 9.58333 6.24998C9.58333 6.41665 9.52431 6.55554 9.40625 6.66665C9.28819 6.77776 9.14583 6.8472 8.97917 6.87498C8.35417 6.9722 7.73958 7.05206 7.13542 7.11456C6.53125 7.17706 5.92361 7.2222 5.3125 7.24998C5.28472 7.44442 5.26736 7.64581 5.26042 7.85415C5.25347 8.06248 5.23611 8.26387 5.20833 8.45831C5.59722 8.3472 5.97569 8.27081 6.34375 8.22915C6.71181 8.18748 7.07639 8.18054 7.4375 8.20831L7.5 7.91665C7.52778 7.76387 7.59722 7.65276 7.70833 7.58331C7.81944 7.51387 7.95139 7.49304 8.10417 7.52081C8.28472 7.56248 8.42014 7.66317 8.51042 7.8229C8.60069 7.98262 8.61111 8.14581 8.54167 8.31248L8.5 8.39581C9.20833 8.59026 9.77431 8.95137 10.1979 9.47915C10.6215 10.0069 10.8333 10.5972 10.8333 11.25C10.8333 12.125 10.5382 12.875 9.94792 13.5C9.35764 14.125 8.52778 14.5764 7.45833 14.8541ZM14.1458 14.4583C13.3542 14.4583 12.7292 14.2326 12.2708 13.7812C11.8125 13.3298 11.5833 12.7153 11.5833 11.9375C11.5833 11.2153 11.8125 10.625 12.2708 10.1666C12.7292 9.70831 13.4653 9.34026 14.4792 9.06248C14.7986 8.97915 15.1493 8.90276 15.5312 8.83331C15.9132 8.76387 16.3264 8.70137 16.7708 8.64581C16.7431 7.99304 16.5903 7.51734 16.3125 7.21873C16.0347 6.92012 15.6042 6.77081 15.0208 6.77081C14.7292 6.77081 14.4444 6.81248 14.1667 6.89581C13.8889 6.97915 13.5625 7.11804 13.1875 7.31248C13.0208 7.4097 12.8472 7.43748 12.6667 7.39581C12.4861 7.35415 12.3472 7.24998 12.25 7.08331C12.1528 6.91665 12.1319 6.73956 12.1875 6.55206C12.2431 6.36456 12.3542 6.2222 12.5208 6.12498C12.9514 5.88887 13.4132 5.6979 13.9062 5.55206C14.3993 5.40623 14.9028 5.33331 15.4167 5.33331C16.4028 5.33331 17.1528 5.63887 17.6667 6.24998C18.1806 6.86109 18.4375 7.74998 18.4375 8.91665V13.5833C18.4375 13.7778 18.3715 13.941 18.2396 14.0729C18.1076 14.2048 17.9444 14.2708 17.75 14.2708H17.6458C17.4653 14.2708 17.3125 14.2118 17.1875 14.0937C17.0625 13.9757 16.9861 13.8333 16.9583 13.6666L16.9167 13.3333C16.5278 13.6805 16.1007 13.9548 15.6354 14.1562C15.1701 14.3576 14.6736 14.4583 14.1458 14.4583ZM2.875 13.2291C3.11111 13.2291 3.35417 13.1805 3.60417 13.0833C3.85417 12.9861 4.11806 12.8403 4.39583 12.6458C4.29861 12.118 4.22917 11.6389 4.1875 11.2083C4.14583 10.7778 4.125 10.368 4.125 9.97915C3.59722 10.3125 3.15972 10.7222 2.8125 11.2083C2.46528 11.6944 2.29167 12.1528 2.29167 12.5833C2.29167 12.7639 2.35069 12.9166 2.46875 13.0416C2.58681 13.1666 2.72222 13.2291 2.875 13.2291ZM5.33333 11.875C5.73611 11.4861 6.08681 11.066 6.38542 10.6146C6.68403 10.1632 6.93056 9.68054 7.125 9.16665C6.80556 9.16665 6.48264 9.19442 6.15625 9.24998C5.82986 9.30554 5.5 9.38887 5.16667 9.49998C5.13889 9.86109 5.14236 10.2361 5.17708 10.625C5.21181 11.0139 5.26389 11.4305 5.33333 11.875ZM14.625 13.0416C15.0139 13.0416 15.3924 12.9514 15.7604 12.7708C16.1285 12.5903 16.4653 12.3333 16.7708 12V9.79165C16.4514 9.83331 16.1562 9.88192 15.8854 9.93748C15.6146 9.99304 15.3611 10.0555 15.125 10.125C14.5 10.3194 14.0312 10.5625 13.7188 10.8541C13.4062 11.1458 13.25 11.4861 13.25 11.875C13.25 12.2361 13.375 12.5208 13.625 12.7291C13.875 12.9375 14.2083 13.0416 14.625 13.0416Z" fill="#FEFEFE"/>
</g>
</svg>
