<svg width="24" height="24" viewBox="0 0 24 24" fill="none" xmlns="http://www.w3.org/2000/svg">
<mask id="mask0_45_65" style="mask-type:alpha" maskUnits="userSpaceOnUse" x="0" y="0" width="24" height="24">
<rect width="24" height="24" fill="#D9D9D9"/>
</mask>
<g mask="url(#mask0_45_65)">
<path d="M6.12499 12.15C6.55832 11.05 7.07915 9.99168 7.68749 8.97501C8.29582 7.95834 8.98332 7.00001 9.74999 6.10001L8.44999 5.82501C8.11665 5.75834 7.79165 5.77501 7.47499 5.87501C7.15832 5.97501 6.88332 6.14168 6.64999 6.37501L3.49999 9.52501C3.24999 9.77501 3.15415 10.075 3.21249 10.425C3.27082 10.775 3.46665 11.0167 3.79999 11.15L6.12499 12.15ZM20.825 2.40001C19.0583 2.31668 17.3792 2.65834 15.7875 3.42501C14.1958 4.19168 12.775 5.20001 11.525 6.45001C10.725 7.25001 10.0208 8.11668 9.41249 9.05001C8.80415 9.98335 8.27499 10.9667 7.82499 12C7.74165 12.2167 7.69999 12.4375 7.69999 12.6625C7.69999 12.8875 7.78332 13.0833 7.94999 13.25L11.075 16.375C11.2417 16.5417 11.4375 16.625 11.6625 16.625C11.8875 16.625 12.1083 16.5833 12.325 16.5C13.3583 16.05 14.3417 15.5208 15.275 14.9125C16.2083 14.3042 17.075 13.6 17.875 12.8C19.125 11.55 20.1333 10.1292 20.9 8.53751C21.6667 6.94584 22.0083 5.26668 21.925 3.50001C21.925 3.36668 21.8917 3.23334 21.825 3.10001C21.7583 2.96668 21.675 2.85001 21.575 2.75001C21.475 2.65001 21.3583 2.56668 21.225 2.50001C21.0917 2.43334 20.9583 2.40001 20.825 2.40001ZM14.475 9.85001C14.0917 9.46668 13.9 8.99584 13.9 8.43751C13.9 7.87918 14.0917 7.40834 14.475 7.02501C14.8583 6.64168 15.3292 6.45001 15.8875 6.45001C16.4458 6.45001 16.9167 6.64168 17.3 7.02501C17.6833 7.40834 17.875 7.87918 17.875 8.43751C17.875 8.99584 17.6833 9.46668 17.3 9.85001C16.9167 10.2333 16.4458 10.425 15.8875 10.425C15.3292 10.425 14.8583 10.2333 14.475 9.85001ZM12.175 18.2L13.175 20.525C13.3083 20.8583 13.55 21.0583 13.9 21.125C14.25 21.1917 14.55 21.1 14.8 20.85L17.95 17.7C18.1833 17.4667 18.35 17.1875 18.45 16.8625C18.55 16.5375 18.5667 16.2083 18.5 15.875L18.25 14.575C17.3333 15.3417 16.3708 16.0292 15.3625 16.6375C14.3542 17.2458 13.2917 17.7667 12.175 18.2ZM4.04999 16.05C4.63332 15.4667 5.34165 15.1708 6.17499 15.1625C7.00832 15.1542 7.71665 15.4417 8.29999 16.025C8.88332 16.6083 9.17499 17.3167 9.17499 18.15C9.17499 18.9833 8.88332 19.6917 8.29999 20.275C7.49999 21.075 6.55415 21.55 5.46249 21.7C4.37082 21.85 3.27499 22 2.17499 22.15C2.32499 21.05 2.47915 19.9542 2.63749 18.8625C2.79582 17.7708 3.26665 16.8333 4.04999 16.05Z" fill="#FEFEFE"/>
</g>
</svg>
