<svg width="28" height="28" viewBox="0 0 28 28" fill="none" xmlns="http://www.w3.org/2000/svg">
<path d="M25.6667 2.33333C20.2222 0 14 0 14 0C14 0 7.7778 0 2.33336 2.33333C2.52703e-05 14 2.33336 24.1111 14 28C25.6667 24.1111 28 14 25.6667 2.33333Z" fill="#CCD6DD"/>
<path d="M14.0001 26.3542C4.98717 23.1225 1.52528 15.4241 3.70228 3.45643C8.60461 1.5781 13.9441 1.55554 14.0001 1.55554C14.0553 1.55554 19.4118 1.58665 24.2978 3.45643C26.4748 15.4241 23.0129 23.1225 14.0001 26.3542Z" fill="#55ACEE"/>
<path d="M24.2978 3.45643C19.4118 1.58665 14.0552 1.55554 14 1.55554V26.3542C23.0129 23.1225 26.4748 15.4241 24.2978 3.45643Z" fill="#226699"/>
</svg>
