<svg width="20" height="20" viewBox="0 0 20 20" fill="none" xmlns="http://www.w3.org/2000/svg">
<mask id="mask0_55_25" style="mask-type:alpha" maskUnits="userSpaceOnUse" x="0" y="0" width="20" height="20">
<rect width="20" height="20" fill="#D9D9D9"/>
</mask>
<g mask="url(#mask0_55_25)">
<path d="M9.99998 14.1666C8.8472 14.1666 7.86456 13.7604 7.05206 12.9479C6.23956 12.1354 5.83331 11.1528 5.83331 9.99998C5.83331 8.8472 6.23956 7.86456 7.05206 7.05206C7.86456 6.23956 8.8472 5.83331 9.99998 5.83331C11.1528 5.83331 12.1354 6.23956 12.9479 7.05206C13.7604 7.86456 14.1666 8.8472 14.1666 9.99998C14.1666 11.1528 13.7604 12.1354 12.9479 12.9479C12.1354 13.7604 11.1528 14.1666 9.99998 14.1666ZM1.66665 10.8333C1.43054 10.8333 1.23262 10.7535 1.0729 10.5937C0.913174 10.434 0.833313 10.2361 0.833313 9.99998C0.833313 9.76387 0.913174 9.56595 1.0729 9.40623C1.23262 9.24651 1.43054 9.16665 1.66665 9.16665H3.33331C3.56942 9.16665 3.76734 9.24651 3.92706 9.40623C4.08679 9.56595 4.16665 9.76387 4.16665 9.99998C4.16665 10.2361 4.08679 10.434 3.92706 10.5937C3.76734 10.7535 3.56942 10.8333 3.33331 10.8333H1.66665ZM16.6666 10.8333C16.4305 10.8333 16.2326 10.7535 16.0729 10.5937C15.9132 10.434 15.8333 10.2361 15.8333 9.99998C15.8333 9.76387 15.9132 9.56595 16.0729 9.40623C16.2326 9.24651 16.4305 9.16665 16.6666 9.16665H18.3333C18.5694 9.16665 18.7673 9.24651 18.9271 9.40623C19.0868 9.56595 19.1666 9.76387 19.1666 9.99998C19.1666 10.2361 19.0868 10.434 18.9271 10.5937C18.7673 10.7535 18.5694 10.8333 18.3333 10.8333H16.6666ZM9.99998 4.16665C9.76387 4.16665 9.56595 4.08679 9.40623 3.92706C9.24651 3.76734 9.16665 3.56942 9.16665 3.33331V1.66665C9.16665 1.43054 9.24651 1.23262 9.40623 1.0729C9.56595 0.913174 9.76387 0.833313 9.99998 0.833313C10.2361 0.833313 10.434 0.913174 10.5937 1.0729C10.7535 1.23262 10.8333 1.43054 10.8333 1.66665V3.33331C10.8333 3.56942 10.7535 3.76734 10.5937 3.92706C10.434 4.08679 10.2361 4.16665 9.99998 4.16665ZM9.99998 19.1666C9.76387 19.1666 9.56595 19.0868 9.40623 18.9271C9.24651 18.7673 9.16665 18.5694 9.16665 18.3333V16.6666C9.16665 16.4305 9.24651 16.2326 9.40623 16.0729C9.56595 15.9132 9.76387 15.8333 9.99998 15.8333C10.2361 15.8333 10.434 15.9132 10.5937 16.0729C10.7535 16.2326 10.8333 16.4305 10.8333 16.6666V18.3333C10.8333 18.5694 10.7535 18.7673 10.5937 18.9271C10.434 19.0868 10.2361 19.1666 9.99998 19.1666ZM4.70831 5.87498L3.81248 4.99998C3.64581 4.8472 3.56595 4.65276 3.5729 4.41665C3.57984 4.18054 3.6597 3.97915 3.81248 3.81248C3.97915 3.64581 4.18054 3.56248 4.41665 3.56248C4.65276 3.56248 4.8472 3.64581 4.99998 3.81248L5.87498 4.70831C6.02776 4.87498 6.10415 5.06942 6.10415 5.29165C6.10415 5.51387 6.02776 5.70831 5.87498 5.87498C5.7222 6.04165 5.53123 6.12151 5.30206 6.11456C5.0729 6.10762 4.87498 6.02776 4.70831 5.87498ZM15 16.1875L14.125 15.2916C13.9722 15.125 13.8958 14.9271 13.8958 14.6979C13.8958 14.4687 13.9722 14.2778 14.125 14.125C14.2778 13.9583 14.4687 13.8785 14.6979 13.8854C14.9271 13.8923 15.125 13.9722 15.2916 14.125L16.1875 15C16.3541 15.1528 16.434 15.3472 16.4271 15.5833C16.4201 15.8194 16.3403 16.0208 16.1875 16.1875C16.0208 16.3541 15.8194 16.4375 15.5833 16.4375C15.3472 16.4375 15.1528 16.3541 15 16.1875ZM14.125 5.87498C13.9583 5.7222 13.8785 5.53123 13.8854 5.30206C13.8923 5.0729 13.9722 4.87498 14.125 4.70831L15 3.81248C15.1528 3.64581 15.3472 3.56595 15.5833 3.5729C15.8194 3.57984 16.0208 3.6597 16.1875 3.81248C16.3541 3.97915 16.4375 4.18054 16.4375 4.41665C16.4375 4.65276 16.3541 4.8472 16.1875 4.99998L15.2916 5.87498C15.125 6.02776 14.9305 6.10415 14.7083 6.10415C14.4861 6.10415 14.2916 6.02776 14.125 5.87498ZM3.81248 16.1875C3.64581 16.0208 3.56248 15.8194 3.56248 15.5833C3.56248 15.3472 3.64581 15.1528 3.81248 15L4.70831 14.125C4.87498 13.9722 5.0729 13.8958 5.30206 13.8958C5.53123 13.8958 5.7222 13.9722 5.87498 14.125C6.04165 14.2778 6.12151 14.4687 6.11456 14.6979C6.10762 14.9271 6.02776 15.125 5.87498 15.2916L4.99998 16.1875C4.8472 16.3541 4.65276 16.434 4.41665 16.4271C4.18054 16.4201 3.97915 16.3403 3.81248 16.1875Z" fill="#FEFEFE"/>
</g>
</svg>
