<svg width="30" height="30" viewBox="0 0 30 30" fill="none" xmlns="http://www.w3.org/2000/svg">
<g clip-path="url(#clip0_104_128)">
<path d="M27.9909 28.6948L21.557 26.7222L16.705 29.7088L13.3196 29.7072L8.46459 26.7222L2.03346 28.6945L0.0772705 21.8947L2.03346 14.3475L0.0772705 7.96613L2.03346 0.0576172L12.0828 6.23953H17.9418L27.9909 0.0576172L29.9471 7.96613L27.9909 14.3472L29.9471 21.8944L27.9909 28.6948Z" fill="#FF5C16"/>
<path d="M2.03442 0.0576172L12.0838 6.24432L11.6839 10.49L2.03442 0.0576172ZM8.46649 21.897L12.8882 25.3652L8.46649 26.7216V21.897ZM12.5335 16.1625L11.6836 10.4922L6.24432 14.3478L6.24123 14.3462V14.3494L6.25824 18.318L8.46401 16.1625H12.5335ZM27.9897 0.0576172L17.9406 6.24432L18.3387 10.49L27.9897 0.0576172ZM21.5598 21.897L17.1387 25.3649L21.5601 26.7212L21.5598 21.897ZM23.7819 14.3491V14.3462L23.7807 14.3478L18.3408 10.4922L17.4912 16.1625H21.5595L23.7665 18.318L23.7819 14.3491Z" fill="#FF5C16"/>
<path d="M8.4649 26.7213L2.03346 28.6936L0.0772705 21.8967H8.4649V26.7213ZM12.5325 16.1616L13.761 24.359L12.0584 19.8015L6.25572 18.3187L8.46273 16.1619L12.5325 16.1616ZM21.5597 26.7213L27.9912 28.6936L29.9474 21.8967H21.5597V26.7213ZM17.4921 16.1616L16.2637 24.359L17.9662 19.8015L23.7689 18.3187L21.5604 16.1619L17.4921 16.1616Z" fill="#E34807"/>
<path d="M0.0772705 21.8941L2.03346 14.3466H6.24057L6.25603 18.3168L12.0587 19.7992L13.7613 24.357L12.886 25.3607L8.4649 21.8925H0.0772705V21.8941ZM29.9477 21.8941L27.9915 14.3466H23.7844L23.7689 18.3168L17.9662 19.7992L16.2637 24.357L17.1389 25.3607L21.5604 21.8925H29.9474L29.9477 21.8941ZM17.9421 6.23828H12.0831L11.6848 10.4839L13.7616 24.3516H16.2637L18.342 10.4839L17.9421 6.23828Z" fill="#FF8D5D"/>
<path d="M2.03346 0.0576172L0.0772705 7.96613L2.03346 14.3472H6.24057L11.6829 10.49L2.03346 0.0576172ZM11.3183 17.809H9.41253L8.37459 18.8564L12.0612 19.7979L11.3183 17.8077V17.809ZM27.9912 0.0576172L29.9474 7.96613L27.9912 14.3472H23.7841L18.3417 10.49L27.9912 0.0576172ZM18.7094 17.809H20.6177L21.6556 18.858L17.9647 19.8008L18.7094 17.8077V17.809ZM16.7041 27.0034L17.1389 25.3639L16.264 24.3602H13.7607L12.8857 25.3639L13.3206 27.003" fill="#661800"/>
<path d="M16.7023 27.0034V29.7098H13.3185V27.0034H16.7023Z" fill="#C0C4CD"/>
<path d="M8.46655 26.7187L13.3228 29.7082V27.0015L12.8883 25.3623L8.46655 26.7187ZM21.5599 26.7187L16.7036 29.7082V27.0015L17.1381 25.3623L21.5599 26.7187Z" fill="#E7EBF6"/>
</g>
<defs>
<clipPath id="clip0_104_128">
<rect width="30" height="30" fill="white"/>
</clipPath>
</defs>
</svg>
