<svg width="30" height="30" viewBox="0 0 30 30" fill="none" xmlns="http://www.w3.org/2000/svg">
<g clip-path="url(#clip0_104_152)">
<path d="M0.138916 25.219C0.138916 29.1053 1.86294 30 3.65594 30C7.44878 30 10.2992 26.0019 12.0002 22.8425C11.7933 23.5415 11.6784 24.2405 11.6784 24.9115C11.6784 26.7568 12.5519 28.0708 14.2759 28.0708C16.6436 28.0708 19.1722 25.5545 20.4824 22.8425C20.3905 23.2339 20.3445 23.5974 20.3445 23.9329C20.3445 25.219 20.9422 26.0298 22.1605 26.0298C25.9993 26.0298 29.8611 17.7819 29.8611 10.5685C29.8611 4.94874 27.5165 0 21.6318 0C11.2876 0 0.138916 15.3215 0.138916 25.219ZM18.0688 9.95339C18.0688 8.55545 18.7124 7.5769 19.6549 7.5769C20.5744 7.5769 21.218 8.55545 21.218 9.95339C21.218 11.3514 20.5744 12.3579 19.6549 12.3579C18.7124 12.3579 18.0688 11.3514 18.0688 9.95339ZM22.988 9.95339C22.988 8.55545 23.6317 7.5769 24.5741 7.5769C25.4936 7.5769 26.1373 8.55545 26.1373 9.95339C26.1373 11.3514 25.4936 12.3579 24.5741 12.3579C23.6317 12.3579 22.988 11.3514 22.988 9.95339Z" fill="#3C315B"/>
</g>
<defs>
<clipPath id="clip0_104_152">
<rect width="30" height="30" fill="white"/>
</clipPath>
</defs>
</svg>
