<svg width="30" height="20" viewBox="0 0 30 20" fill="none" xmlns="http://www.w3.org/2000/svg">
<path d="M11.1847 5.83333C11.1847 2.61167 13.6417 0 16.6725 0H24.5122C27.543 0 30 2.61167 30 5.83333V14.1667C30 17.3883 27.543 20 24.5122 20H16.6725C13.6417 20 11.1847 17.3883 11.1847 14.1667V5.83333Z" fill="#202020"/>
<path d="M18.5603 13.7502L21.3113 5.8335H22.1187L19.3682 13.7502H18.5603Z" fill="white"/>
<path d="M0 5.41667C0 2.425 2.28136 0 5.09581 0C7.91027 0 10.1916 2.425 10.1916 5.41667V14.5833C10.1916 17.575 7.91027 20 5.09581 20C2.28136 20 0 17.575 0 14.5833V5.41667Z" fill="#202020"/>
<path d="M4.60583 12.4997V11.458H5.5858V12.4997H4.60583Z" fill="white"/>
</svg>
