<svg width="30" height="30" viewBox="0 0 30 30" fill="none" xmlns="http://www.w3.org/2000/svg">
<g clip-path="url(#clip0_104_159)">
<path d="M6.54771 0.103516H23.4522C27.0113 0.103516 29.8965 2.98874 29.8965 6.54784V23.4523C29.8965 27.0114 27.0113 29.8966 23.4522 29.8966H6.54771C2.98862 29.8966 0.103394 27.0114 0.103394 23.4523V6.54784C0.103394 2.98874 2.98862 0.103516 6.54771 0.103516Z" fill="#FFEF46" stroke="#EEDA0F" stroke-width="2"/>
<path d="M14.5394 15.8514L16.017 14.4239L18.7718 15.3254C20.5751 15.9266 21.4767 17.0285 21.4767 18.5813C21.4767 19.7584 21.0259 20.5348 20.1243 21.5366L19.8488 21.8371L19.949 21.1358C20.3496 18.5813 19.5984 17.4793 17.1189 16.6778L14.5394 15.8514ZM10.8327 7.11082L18.3462 9.61528L16.7182 11.1681L12.8113 9.86573C11.4589 9.41492 11.0081 8.68862 10.8327 7.16091V7.11082ZM10.3819 19.8335L12.0849 18.2055L15.2907 19.2575C16.9686 19.8085 17.5446 20.5348 17.3694 22.363L10.3819 19.8335ZM8.22809 12.5705C8.22809 12.0947 8.47853 11.6439 8.90429 11.2682C9.35509 11.9194 10.1315 12.4954 11.3586 12.8962L14.0134 13.7727L12.5358 15.2003L9.93112 14.3487C8.72897 13.948 8.22809 13.3469 8.22809 12.5705ZM16.0921 25.719C21.6019 22.0625 24.5572 19.5831 24.5572 16.5276C24.5572 14.499 23.355 13.3719 20.7003 12.4954L18.6967 11.8192L24.1816 6.55983L23.0795 5.38273L21.4517 6.81027L13.763 4.28076C11.3837 5.05715 8.37836 7.33621 8.37836 9.61527C8.37836 9.86572 8.4034 10.1162 8.47854 10.3917C6.50001 11.5186 5.69858 12.5705 5.69858 13.8728C5.69858 15.1 6.34974 16.3272 8.42845 17.0035L10.0814 17.5544L4.37122 23.0392L5.47318 24.2163L7.25135 22.5884L16.0921 25.719Z" fill="#02050A"/>
</g>
<defs>
<clipPath id="clip0_104_159">
<rect width="30" height="30" fill="white"/>
</clipPath>
</defs>
</svg>
